<?xml version="1.0" encoding="UTF-8" standalone="no"?> <svg id="artwork" xmlns="http://www.w3.org/2000/svg" viewBox="0 0 512 512"><title>deer</title><g id="Deer"><path d="M156,128.45a.94.94,0,0,1-.1.1,29.71,29.71,0,0,0-3,3.59,57.47,57.47,0,0,0-6.5-3.44c-16.5-7.44-35.93,1.74-36.75,2.13l-4.92,2.37,1.48,5.25c.25.88,6.24,21.51,22.74,29a50.79,50.79,0,0,0,20.34,4.73l.72,0,2.13,18a37.88,37.88,0,0,0,2.25,11.12V282.9a70.94,70.94,0,0,0,2.78,20.75A53.2,53.2,0,0,0,169,324.49l21.72,74.22-5.22,94.18H181.6a6.68,6.68,0,0,0-6.77,6.3,6.5,6.5,0,0,0,6.5,6.7h37.42l10.66-95.42V400l41.64,92.88h-3.92a6.68,6.68,0,0,0-6.77,6.3,6.5,6.5,0,0,0,6.5,6.7h48.41L283.94,434.7l-.31-.63c-8.56-15.65-10.12-34.45-10.41-41a71.44,71.44,0,0,0,13.89-26.88c9.82,2.65,24.57,5.7,47.58,5.7a129.33,129.33,0,0,0,23-2.08c3.17,12.33,9,21.78,17.35,28.1a27.37,27.37,0,0,1,11.13,21l-19.88,73.93h-6.19a6.68,6.68,0,0,0-6.77,6.3,6.5,6.5,0,0,0,6.5,6.7h35l16.32-56v43h-3.53a6.67,6.67,0,0,0-6.77,6.3,6.5,6.5,0,0,0,6.49,6.7h37v-64.3l6.05-51c1.44-10-2.67-14.4-5.25-16.14-6.4-4.33-9.61-11.79-9.8-22.8l7.62-23.24L445,317.56a65.43,65.43,0,0,0,.43-21.79V262.22c0-18.62-9-36.51-24.59-49.09A10.07,10.07,0,0,0,410.21,212a9.16,9.16,0,0,0-5.33,8.27v24.45a65.55,65.55,0,0,0-24.14-4.61H360.12a6.69,6.69,0,0,0-6.77,6.3,6.5,6.5,0,0,0,6.5,6.7H380a53.27,53.27,0,0,1,39.64,17.27,52.23,52.23,0,0,1,12.6,44.82l-1.9,10.05-8,24.44v1c0,15.8,5.1,27.35,15.17,34.34a9.47,9.47,0,0,1,0,3.82l-6.14,51.6,0,.38v52.07h-7.16V411.3a41.6,41.6,0,0,0-.43-5.93l-.08-.52a42.54,42.54,0,0,0-16-27c-6-4.69-10.81-13.55-13.81-25.6l-.09-.33a111.68,111.68,0,0,1-2.34-13c-.3-2.41-.52-4.88-.66-7.36a8.55,8.55,0,0,0-12.19-7.19,82,82,0,0,1-35.45,8.06c-20.16,0-36.4-2.95-49.68-9-2.53-1.14-5.05-2.42-7.52-3.8a8.55,8.55,0,0,0-12.28,10.12,58.44,58.44,0,0,1,2.47,25.62c-.07.57-.16,1.14-.25,1.68l0,.18a59.11,59.11,0,0,1-13.53,28.73,8.56,8.56,0,0,0-2.09,5.62v.13c.13,6.46,1.38,29,11.94,48.43l23.24,52.8H285.3L228,365.12a47.71,47.71,0,0,0-5.69-13.47l-16.76-39.74a29,29,0,0,0-7.42-10.29,26,26,0,0,1-8.65-19.38v-12a6.68,6.68,0,0,0-6.3-6.77,6.5,6.5,0,0,0-6.7,6.5v11.21c0,11.47,4.53,22.66,13.11,30.26a15.46,15.46,0,0,1,4,5.54l6.1,14.47c-9-5.06-15.44-9.76-20.16-14.7a40.85,40.85,0,0,1-9.92-16.83,58.28,58.28,0,0,1-2.23-17V219.49A25.82,25.82,0,0,0,183,225.14h8.09c9.18,0,17.24-5.37,22.83-12.93l4.43,11.71a45.1,45.1,0,0,0,42.18,29.14H323a6.67,6.67,0,0,0,6.77-6.3,6.5,6.5,0,0,0-6.49-6.7h-62.8a32.25,32.25,0,0,1-30-20.74l-6.65-17.6A30,30,0,0,1,222,190v-.06l2-17.8.69,0A50.79,50.79,0,0,0,245,167.4c16.5-7.44,22.5-28.07,22.74-28.94l1.49-5.26-4.92-2.37c-.82-.39-20.26-9.57-36.76-2.13a57.49,57.49,0,0,0-6.55,3.48,31,31,0,0,0-2.9-3.51A126.59,126.59,0,0,0,313.64,13a6.51,6.51,0,0,0-6.5-6.85h0a6.46,6.46,0,0,0-6.48,6.08A113.34,113.34,0,0,1,249.45,101a76.4,76.4,0,0,0,14.84-45.32V41.05a6.49,6.49,0,0,0-6.49-6.5h0a6.5,6.5,0,0,0-6.5,6.5V55.63a63.81,63.81,0,0,1-31.74,55.13,34.34,34.34,0,0,0,2.51-12.89V76.3a6.49,6.49,0,0,0-6.5-6.49h0a6.49,6.49,0,0,0-6.49,6.49v21c0,11.68-9.07,21.64-20.74,22.08a21.59,21.59,0,0,1-22.39-21.55V76.3a6.49,6.49,0,0,0-6.5-6.49h0a6.49,6.49,0,0,0-6.49,6.49V97.87a34.33,34.33,0,0,0,2.5,12.89,63.83,63.83,0,0,1-31.74-55.13V41.05a6.5,6.5,0,0,0-6.5-6.5h0a6.5,6.5,0,0,0-6.5,6.5V55.63A76.39,76.39,0,0,0,125.54,101,113.37,113.37,0,0,1,74.33,12.19a6.48,6.48,0,0,0-6.49-6.08h0A6.51,6.51,0,0,0,61.35,13,126.59,126.59,0,0,0,156,128.45Zm-21.69,27.1c-6.7-3-11-10-13.37-15.05,5.31-1.56,13.44-3,20.14.05a43.17,43.17,0,0,1,6.78,3.81,29.88,29.88,0,0,0-.4,6l1,8.76A38.4,38.4,0,0,1,134.27,155.55ZM432.41,265.42c-.44-.57-.87-1.15-1.34-1.7a65.37,65.37,0,0,0-13.19-12.1V228c9.31,9.57,14.53,21.72,14.53,34.21Zm-49.18,97.06c3.81,11.52,9.31,20.14,16.39,25.66a29.64,29.64,0,0,1,10.93,17.39l-25.47,87.36h-5.31l19.43-72.26v-.86a40.27,40.27,0,0,0-16.29-32.22c-5.89-4.45-10.1-11.41-12.53-20.69C375.19,365.48,379.46,364,383.23,362.48Zm-40.16-17.06a94.44,94.44,0,0,0,35.19-6.77q.09.93.21,1.83c.38,3.2.89,6.31,1.47,9.31a130.76,130.76,0,0,1-14.06,4.84,115.4,115.4,0,0,1-31.19,4.27c-22.32,0-36.26-3-45.38-5.57a71,71,0,0,0-.91-17.93C303.32,342.14,321.21,345.42,343.07,345.42Zm-147.4-1.35,3.58,2.27a38.61,38.61,0,0,1,8.49,7.3c.74.85,1.42,1.74,2.07,2.65l5.85,13a30.12,30.12,0,0,1,.75,6.38v34l-9.28,83.14h-8.6l5.31-95.69-17.07-58.33C189.49,340.59,192.45,342.31,195.67,344.07Zm30.38-199.66a43.65,43.65,0,0,1,6.86-3.86c6.7-3,14.82-1.61,20.13-.06-2.36,5-6.7,12-13.37,15.06a38.3,38.3,0,0,1-14.2,3.57l.95-8.35,0-.56A30.14,30.14,0,0,0,226.05,144.41Zm-35,67.73H183c-4.16,0-8.57-2.74-12.16-7.51a16.54,16.54,0,0,1,32.32.13C199.88,209.07,195.57,212.14,191.08,212.14ZM165.19,137.6a16.87,16.87,0,0,1,12.21-5.16h19.07a17,17,0,0,1,17,17.17l-4.45,39a29.5,29.5,0,0,0-44-.1l-4.6-38.8A16.92,16.92,0,0,1,165.19,137.6Z"/></g></svg>