<?xml version="1.0" encoding="UTF-8" standalone="no"?> <svg id="filled_outline" data-name="filled outline" xmlns="http://www.w3.org/2000/svg" viewBox="0 0 340 340"><title>goat</title><path d="M254.24,204.944s-6.139,47.437-4.11,80.235a46.9,46.9,0,0,0,9.037,25.041c1.264,1.708,2.637,3.46,4.077,5.139a31.081,31.081,0,0,1,2.791,3.724c1.646,2.631,3.854,6.908,3.854,10.917H249.718s-18.019-13.092-20.975-41.915V213.443Z" style="fill:#ccc"/><path d="M118.627,236.722s-30.67,49.1,6.651,93.278H93.869s-32.148-48.566,5.543-100.668Z" style="fill:#ccc"/><path d="M265.305,125s13.166,80.985-27.157,106.738c0,0-4.808,22.345-2.538,61.608a46.784,46.784,0,0,0,6.527,21.288c-5.99,2.223-12.839,2.6-21.077,0a21.227,21.227,0,0,1-3.82-12c-.15-12.837-1.593-38.324-10.266-50.219,0,0-12.589-3.3-31.19-1.215A114.685,114.685,0,0,1,135.7,248.48c-12.3-3.02-26.139-7.229-34.447-12.341,0,0-24.676,33.724-5.958,78.482-5.743,3.472-13.187,2.807-21.514,0-2-7.337-4.934-16-8.933-22.941a21.747,21.747,0,0,1-2.819-13.49c1.813-14.91,4.38-48.091-4.827-70.851,0,0-10.165-22.7-6.438-37.951,0,0-23.38-6.767-26.43-28.966l11.521,1.52s-11.521-29.48,22.364-37.274c0,0-11.86,17.291,5.422,35.754,0,0,36.6-20.5,96.572,0a126.624,126.624,0,0,0,29.007,4.15A27.65,27.65,0,0,0,210.733,134.5c9.84-11.9,24.849-34.886,23.01-62.706h16.943Z" style="fill:#fff"/><path d="M265.128,53.792s2.526-40.541-42.763-43.284a1.606,1.606,0,0,0-1.139,2.826c7.18,5.977,21.223,21.219,19.429,47.965Z" style="fill:#7d889e"/><path d="M230.409,99a53.49,53.49,0,0,0,2.294,9.929,1.616,1.616,0,0,1,.2.626l1.356,12.107a28.429,28.429,0,0,0,1.284,5.833,50.147,50.147,0,0,0,1.489,17.858,39.208,39.208,0,0,0,19.451,24.278l9.777,5.338q.135-1.193.251-2.378c.006-.063.011-.126.017-.189q.106-1.093.2-2.179c.008-.093.015-.186.022-.279q.087-1.047.159-2.088c.007-.1.013-.195.02-.292q.071-1.042.129-2.074l.014-.258q.058-1.058.1-2.1c0-.065.006-.13.008-.194q.048-1.11.082-2.205v-.044c.188-6.1.075-11.826-.171-16.825l0-.045q-.045-.908-.1-1.78l0-.074c-.034-.575-.068-1.14-.105-1.693l0-.069c-.3-4.589-.693-8.374-1.011-11.02l-.015-.118c-.034-.282-.067-.552-.1-.807l-.016-.131c-.031-.238-.06-.464-.088-.676l-.021-.159q-.037-.285-.072-.537l-.022-.16c-.022-.161-.043-.31-.062-.448l-.016-.113c-.019-.132-.037-.251-.053-.359l-.014-.1c-.014-.1-.026-.179-.038-.252l-.01-.07-.025-.158-.006-.039-.01-.063L250.686,71.8H233.743A75.393,75.393,0,0,1,230.409,99Z" style="fill:#ccc"/><path d="M263.271,53.43s-2.525-40.541,42.763-43.284a1.607,1.607,0,0,1,1.14,2.826c-7.18,5.977-21.223,21.22-19.429,47.965Z" style="fill:#7d889e"/><path d="M248.68,121.737s-7.7,25.761,13.553,37.364c0,0,1.589-6.883,2.965-9.636,0,0,7.277,8.456,18.092,10.816,0,0-4.578-5.426-4.917-16.593a22.531,22.531,0,0,1,.372-4.57c.724-4.134,1.97-13.969-1.551-18.561Z" style="fill:#7d889e"/><path d="M287.745,60.937s-22.365-19.061-47.779,0c0,0-10.692-2.423-19.264-7.8a5.138,5.138,0,0,0-7.778,4.973c.977,8.636,5.7,18.821,20.6,18.351a29.13,29.13,0,0,0,7.911,24.24,13.05,13.05,0,0,1,3.4,7.524l1.356,12.107a16.674,16.674,0,0,0,16.571,14.819h0a16.674,16.674,0,0,0,16.591-15l1.159-11.5a12.926,12.926,0,0,1,2.475-6.363c3.685-5,10.611-16.438,7.052-27.877,0,0,22.009,6.2,25.57-16.918a5.15,5.15,0,0,0-7.774-5.187C302.36,55.683,294.874,59.592,287.745,60.937Z" style="fill:#fff"/><path d="M249.718,330h20.171c0-4.009-2.208-8.286-3.854-10.917a31.081,31.081,0,0,0-2.791-3.724c-.208-.243-.4-.5-.609-.741H237.024C242.946,325.069,249.718,330,249.718,330Z" style="fill:#3f4551"/><path d="M93.869,330h31.409a81.955,81.955,0,0,1-10.332-15.382H86.617A78.05,78.05,0,0,0,93.869,330Z" style="fill:#3f4551"/><path d="M221.059,314.645a84.849,84.849,0,0,1,8.193,13.726A2.887,2.887,0,0,0,231.859,330H253.4a104.311,104.311,0,0,1-10.569-14.25c-.236-.371-.445-.756-.67-1.132H221.072Z" style="fill:#4f5763"/><path d="M103.286,330A107.248,107.248,0,0,1,95.3,314.618H73.779c1.511,5.537,2.491,10.317,3,13.022A2.893,2.893,0,0,0,79.627,330Z" style="fill:#4f5763"/><path d="M261.1,330a4,4,0,0,0,4,4h4.789a4,4,0,0,0,4-4c0-4.878-2.427-9.783-4.463-13.038a34.511,34.511,0,0,0-3.146-4.208c-1.261-1.47-2.573-3.123-3.9-4.913a42.824,42.824,0,0,1-8.26-22.909c-.74-11.954-.469-27.236.8-45.42a4,4,0,1,0-7.98-.559c-1.3,18.533-1.571,34.169-.81,46.473a50.813,50.813,0,0,0,9.815,27.175c1.439,1.943,2.871,3.747,4.256,5.362a26.921,26.921,0,0,1,2.436,3.242,26.383,26.383,0,0,1,2.413,4.8A4,4,0,0,0,261.1,330Z" style="fill:#24242b"/><path d="M112.987,330a4,4,0,0,0,4,4h8.291a4,4,0,0,0,3.056-6.581c-21.407-25.342-19.4-52.38-13.944-70.6a4,4,0,0,0-7.664-2.294c-5.552,18.547-7.854,45.391,10.42,71.475h-.159A4,4,0,0,0,112.987,330Z" style="fill:#24242b"/><path d="M175.338,247.213c-1.895.212-3.83.376-5.751.485a23.836,23.836,0,0,0-9.719,2.657,4,4,0,1,0,3.7,7.095,15.862,15.862,0,0,1,6.479-1.764c2.065-.119,4.146-.294,6.186-.523a95.786,95.786,0,0,1,28.331.8c7.461,11.8,8.559,36.408,8.679,46.7a25.121,25.121,0,0,0,4.551,14.265c.021.029.05.049.072.078l.008.012c.1.157.21.312.323.464a86.33,86.33,0,0,1,8.167,14.14A4,4,0,0,0,230.016,334H253.4a4,4,0,0,0,2.935-6.718A97.816,97.816,0,0,1,246.2,313.6c-.118-.186-.227-.378-.338-.57l-.27-.462c-.042-.071-.093-.136-.14-.2a42.973,42.973,0,0,1-5.849-19.255c-1.876-32.434,1.178-53.317,2.164-58.979,16.335-11.251,26.022-32.08,28.8-61.947a4,4,0,0,0-7.966-.741c-2.071,22.251-8.11,38.85-17.961,49.585a24.681,24.681,0,0,0-.53-7.728,4,4,0,0,0-7.76,1.94c1.277,5.113-.953,12.566-1.921,15.01-.041.1-.058.209-.09.313s-.081.215-.106.329c-.2.934-4.9,23.327-2.62,62.68a51.079,51.079,0,0,0,4.021,17.045h-.953a4,4,0,0,0,0,8h5.228q2.607,4.057,5.061,7.382H232.548a88.732,88.732,0,0,0-7.942-13.3l-.262-.387c-.022-.032-.052-.056-.075-.087a17.166,17.166,0,0,1-3.03-9.655c-.164-14.095-1.8-39.531-10.848-52.26a68.264,68.264,0,0,1-4.641-10.208,4,4,0,0,0-7.592,2.523c.041.126.632,1.887,1.775,4.53A109.344,109.344,0,0,0,175.338,247.213Z" style="fill:#24242b"/><path d="M61.406,102.248a4,4,0,0,0-4.476-1.37c-11.52,3.92-19.165,10.139-22.722,18.484-5,11.724.194,23.1.418,23.576a4,4,0,0,0,7.248-3.386c-.04-.084-3.919-8.578-.307-17.053,1.7-3.987,4.825-7.373,9.33-10.121-1.7,8.416-.446,19.8,9.823,30.774a4.012,4.012,0,0,0,4.866.762c.354-.2,35.972-19.313,93.333.29q.107.036.213.066a129.586,129.586,0,0,0,29.981,4.3h.287a31.545,31.545,0,0,0,24.4-11.495,114.565,114.565,0,0,0,17.758-29.355,4,4,0,1,0-7.417-3,106.476,106.476,0,0,1-16.506,27.255,23.575,23.575,0,0,1-18.235,8.594h-.213a123.411,123.411,0,0,1-27.8-3.974C109.437,118.875,74.7,131,64.645,135.483c-12-14.891-3.5-28-3.127-28.556A4,4,0,0,0,61.406,102.248Z" style="fill:#24242b"/><path d="M23.79,136.456a4,4,0,0,0-3.419,4.507c2.656,19.331,18.7,28.056,25.865,31.025-1.934,15.69,6.578,35.319,7.284,36.911,8.95,22.207,6.155,55.526,4.535,68.83a25.554,25.554,0,0,0,3.254,15.818c3.18,5.48,6.157,13.125,8.609,22.111l0,.012c2.255,8.268,3.313,14.888,3.323,14.954A4,4,0,0,0,77.194,334h26.092a4,4,0,0,0,3.395-6.116,103.844,103.844,0,0,1-7.688-14.809c-.011-.027-.027-.05-.039-.076-14.636-35.086-1.608-62.652,3.619-71.52a97.52,97.52,0,0,0,13.751,5.8,59.145,59.145,0,0,0,40.848-.847,34.591,34.591,0,0,1,10.011-2.244,4,4,0,0,0-.655-7.973A42.564,42.564,0,0,0,154.2,239a51.132,51.132,0,0,1-35.317.695,80.242,80.242,0,0,1-15.534-6.963,4,4,0,0,0-5.324,1.045c-1.019,1.392-23.822,33.339-8.547,76.841h-2.89a4,4,0,0,0,0,8h6.089q1.665,3.711,3.654,7.382H80.538c-.555-2.866-1.5-7.315-2.9-12.42l0-.015c-2.67-9.788-5.837-17.874-9.412-24.034A17.266,17.266,0,0,1,66,278.7c2.106-17.306,4.247-49.785-5.086-72.859-.018-.044-.037-.089-.057-.132-.1-.215-9.558-21.65-6.2-35.369v-.007l0-.007a60.017,60.017,0,0,1,4.687-12.066,4,4,0,0,0-7.054-3.774,72.262,72.262,0,0,0-4.126,9.608c-6.133-2.784-17.9-9.911-19.863-24.214A4,4,0,0,0,23.79,136.456Z" style="fill:#24242b"/><path d="M213.191,49.768a9.1,9.1,0,0,0-4.241,8.787c1.453,12.851,8.911,20.581,20.711,21.753a31.8,31.8,0,0,0,8.862,23.133,9.109,9.109,0,0,1,2.33,5.226l1.356,12.107a20.7,20.7,0,0,0,1.49,5.716c-1.06,8.5-.938,26.538,16.617,36.121a4,4,0,0,0,5.818-2.625q.442-1.95.929-3.675c.83.655,1.618,1.257,2.3,1.77a34.522,34.522,0,0,0,8.913,4.9,33.068,33.068,0,0,0,4.159,1.2,3.876,3.876,0,0,0,.839.091,4.017,4.017,0,0,0,3.1-6.542c-.153-.19-3.753-4.778-4.01-14.3a17.312,17.312,0,0,1,.3-3.516c.68-3.838,1.546-10.853.14-16.479a20.943,20.943,0,0,0,.521-2.894l1.159-11.5a8.942,8.942,0,0,1,1.715-4.392c3.871-5.254,9.531-14.893,8.764-25.531a24.638,24.638,0,0,0,14.416-3.5c5.506-3.541,8.93-9.44,10.176-17.531a9.15,9.15,0,0,0-13.832-9.2c-4.455,2.755-10.873,6.218-17.057,7.743a46.407,46.407,0,0,0-21.243-7.927c.533-5.784,2.618-15.672,10.344-23.421,5.332-5.349,12.547-8.816,21.534-10.362a58.577,58.577,0,0,0-14.44,28.361,4,4,0,0,0,7.841,1.587A49.916,49.916,0,0,1,313.251,13.45,4,4,0,0,0,311.237,6h-.266C294.208,6,281.13,10.591,272.1,19.647c-9.763,9.793-12.164,22.246-12.708,29.084a41.077,41.077,0,0,0-14.668,4.5A58.929,58.929,0,0,0,229.133,15.3c10.584,1.826,18.691,6.314,24.182,13.411a4,4,0,0,0,6.328-4.894c-8.96-11.582-23.16-17.453-42.211-17.453h-.269a4,4,0,0,0-2.014,7.45c.223.13,21.252,12.857,21.64,42.091a61.922,61.922,0,0,1-13.96-6.158A8.991,8.991,0,0,0,213.191,49.768Zm60.972,101.911a75.548,75.548,0,0,1-6.212-5.116,4,4,0,0,0-6.432,1.333,48.162,48.162,0,0,0-1.714,4.737c-5.687-4.806-7.8-11.13-8.343-16.856a20.685,20.685,0,0,0,23.832-.846c-.125,1.165-.288,2.363-.506,3.592a25.144,25.144,0,0,0-.417,5.13,41.625,41.625,0,0,0,1.194,9.019Q274.862,152.2,274.163,151.679Zm14.323-86.811c6.329-1.195,13.544-4.278,21.446-9.164a1.054,1.054,0,0,1,1.2.025,1.117,1.117,0,0,1,.513,1.15c-.879,5.707-3.084,9.742-6.556,11.995-5.9,3.827-13.911,1.7-13.976,1.683a4,4,0,0,0-4.905,5.038c3.072,9.872-3.489,20.294-6.453,24.317a16.946,16.946,0,0,0-3.234,8.334l-1.159,11.5a12.675,12.675,0,0,1-25.207.139L248.8,107.776a17.139,17.139,0,0,0-4.461-9.824A23.548,23.548,0,0,1,238,77.41a4,4,0,0,0-3.88-4.97c-.051,0-.1,0-.152,0-10.318.394-15.9-4.447-17.07-14.787a1.124,1.124,0,0,1,.552-1.116,1.009,1.009,0,0,1,1.125-.019c9.045,5.678,20.041,8.212,20.5,8.317a3.988,3.988,0,0,0,3.284-.7c22.445-16.834,41.956-.852,42.794-.148A4,4,0,0,0,288.486,64.868Z" style="fill:#24242b"/><path d="M275.327,88.07a4.042,4.042,0,0,0,.78-.07,4.659,4.659,0,0,0,.75-.23,4.143,4.143,0,0,0,.69-.37,3.694,3.694,0,0,0,.61-.5,4,4,0,0,0,0-5.65,3.251,3.251,0,0,0-.61-.5,3.519,3.519,0,0,0-.69-.37,3.832,3.832,0,0,0-.75-.23,4,4,0,1,0-.78,7.92Z" style="fill:#24242b"/><path d="M253.316,88.07a4.042,4.042,0,0,0,.78-.07,4.659,4.659,0,0,0,.75-.23,4.143,4.143,0,0,0,.69-.37,3.694,3.694,0,0,0,.61-.5,4,4,0,0,0,0-5.65,3.251,3.251,0,0,0-.61-.5,3.519,3.519,0,0,0-.69-.37,3.832,3.832,0,0,0-.75-.23,4,4,0,1,0-.78,7.92Z" style="fill:#24242b"/><path d="M261.065,109.205a4,4,0,0,0-4.449,6.648l4.406,2.948a4,4,0,0,0,4.554-.073l4.114-2.948a4,4,0,0,0-4.66-6.5l-1.862,1.334Z" style="fill:#24242b"/></svg>