<?xml version="1.0" encoding="UTF-8" standalone="no"?> <svg width="64" height="64" viewBox="0 0 64 64" fill="none" xmlns="http://www.w3.org/2000/svg">
<path d="M51.908 45.477C51.389 45.3472 50.8401 45.4181 50.3711 45.6754C49.9021 45.9327 49.5474 46.3575 49.378 46.865L46.954 54.137C46.6463 55.0642 46.024 55.8546 45.1948 56.3713C44.3656 56.888 43.3819 57.0983 42.4139 56.966C41.446 56.8336 40.5548 56.3668 39.8948 55.6466C39.2348 54.9263 38.8475 53.9978 38.8 53.022L38 37V31H26V37L25.2 53.022C25.1519 53.9973 24.7644 54.9251 24.1045 55.6449C23.4445 56.3646 22.5538 56.831 21.5863 56.9633C20.6188 57.0956 19.6355 56.8856 18.8065 56.3694C17.9776 55.8533 17.3552 55.0636 17.047 54.137L14.623 46.865C14.4512 46.338 14.0801 45.899 13.589 45.642C13.0979 45.3849 12.5258 45.3301 11.9948 45.4893C11.4639 45.6485 11.0162 46.009 10.7475 46.4939C10.4789 46.9787 10.4105 47.5494 10.557 48.084L12.417 55.061C12.8711 56.7641 13.8749 58.2696 15.2726 59.3435C16.6702 60.4175 18.3834 60.9998 20.146 61H21.938C23.8879 60.9999 25.7706 60.2877 27.2324 58.9972C28.6941 57.7068 29.6342 55.9268 29.876 53.992L32 37L34.124 53.992C34.3658 55.9268 35.3059 57.7068 36.7676 58.9972C38.2294 60.2877 40.1121 60.9999 42.062 61H43.854C45.6168 61 47.3302 60.4178 48.728 59.3438C50.1259 58.2699 51.1299 56.7643 51.584 55.061L53.444 48.084C53.5168 47.8119 53.5346 47.5281 53.4966 47.249C53.4585 46.97 53.3653 46.7013 53.2223 46.4586C53.0793 46.216 52.8895 46.0042 52.6638 45.8357C52.4382 45.6671 52.1812 45.5452 51.908 45.477V45.477Z" fill="#E53935"/>
<path d="M52 45.51C51.9999 45.8788 51.9178 46.2429 51.7599 46.5761C51.6019 46.9094 51.3719 47.2033 51.0865 47.4369C50.8011 47.6704 50.4674 47.8377 50.1096 47.9266C49.7517 48.0155 49.3785 48.0238 49.017 47.951L46.955 54.137C46.8257 54.519 46.6414 54.8801 46.408 55.209C46.6543 55.3731 46.8612 55.5899 47.0136 55.8436C47.166 56.0973 47.2602 56.3817 47.2894 56.6763C47.3186 56.9709 47.282 57.2682 47.1823 57.5469C47.0826 57.8256 46.9223 58.0787 46.713 58.288C46.4872 58.5139 46.219 58.6931 45.9239 58.8152C45.6287 58.9374 45.3124 59.0002 44.993 59H42.52C41.14 58.9992 39.8072 58.4977 38.7688 57.5887C37.7305 56.6796 37.0573 55.4248 36.874 54.057L35.5 43.741C35.4545 43.3948 35.5009 43.0427 35.6344 42.7201C35.768 42.3975 35.9841 42.1157 36.2609 41.9029C36.5378 41.6902 36.8658 41.554 37.2119 41.508C37.558 41.462 37.9102 41.5079 38.233 41.641L38 37V31H26V37L25.769 41.626C26.0911 41.5007 26.4403 41.4614 26.7822 41.5122C27.1241 41.5629 27.4469 41.7019 27.7188 41.9154C27.9906 42.1289 28.2021 42.4095 28.3324 42.7296C28.4628 43.0498 28.5074 43.3984 28.462 43.741L27.086 54.057C26.9027 55.4248 26.2295 56.6796 25.1911 57.5887C24.1528 58.4977 22.82 58.9992 21.44 59H18.967C18.3226 58.9999 17.7046 58.7437 17.249 58.288C17.0383 58.0767 16.8776 57.8209 16.7786 57.5394C16.6796 57.258 16.6448 56.9579 16.6768 56.6612C16.7089 56.3645 16.8069 56.0788 16.9637 55.8249C17.1205 55.571 17.3321 55.3555 17.583 55.194C17.3546 54.869 17.1738 54.5131 17.046 54.137L14.984 47.951C14.6224 48.024 14.2491 48.0158 13.8911 47.927C13.5331 47.8381 13.1993 47.6709 12.9138 47.4373C12.6283 47.2038 12.3982 46.9097 12.2402 46.5764C12.0821 46.2431 12.0001 45.8789 12 45.51C11.4716 45.6667 11.025 46.0232 10.7552 46.5038C10.4854 46.9844 10.4136 47.5513 10.555 48.084L12.415 55.061C12.8692 56.7644 13.8733 58.2701 15.2714 59.3441C16.6694 60.4181 18.3831 61.0002 20.146 61H21.938C23.8879 60.9999 25.7706 60.2877 27.2324 58.9972C28.6941 57.7068 29.6342 55.9268 29.876 53.992L32 37L34.124 53.992C34.3658 55.9268 35.3059 57.7068 36.7676 58.9972C38.2294 60.2877 40.1121 60.9999 42.062 61H43.854C45.6168 61 47.3302 60.4178 48.728 59.3438C50.1259 58.2699 51.1299 56.7643 51.584 55.061L53.444 48.084C53.5854 47.5514 53.5138 46.9847 53.2441 46.5041C52.9745 46.0235 52.5282 45.6669 52 45.51V45.51Z" fill="#C62828"/>
<path d="M22.864 32L14.9 36.425C14.2208 36.8021 13.4568 37 12.68 37V37C11.609 37.0006 10.5717 36.6251 9.74927 35.939C8.92683 35.2529 8.37143 34.2998 8.18 33.246L7.18 27.73C7.09168 27.2444 6.83567 26.8052 6.45664 26.489C6.0776 26.1728 5.59959 25.9998 5.106 26V26C4.81797 25.9994 4.53288 26.058 4.26837 26.172C4.00386 26.2859 3.76554 26.453 3.56815 26.6628C3.37076 26.8725 3.2185 27.1205 3.12077 27.3915C3.02305 27.6624 2.98194 27.9505 3 28.238L3.346 33.771C3.48521 36.0002 4.46916 38.0925 6.09735 39.6214C7.72554 41.1504 9.87545 42.001 12.109 42V42C13.2679 42.0002 14.4153 41.7708 15.485 41.325L25.864 37L22.864 32Z" fill="#E53935"/>
<path d="M41.136 32L49.1 36.425C49.7791 36.8021 50.5432 37 51.32 37C52.391 37.0006 53.4283 36.6251 54.2507 35.939C55.0732 35.2529 55.6286 34.2998 55.82 33.246L56.82 27.73C56.9083 27.2444 57.1643 26.8052 57.5434 26.489C57.9224 26.1728 58.4004 25.9998 58.894 26V26C59.182 25.9994 59.4671 26.058 59.7316 26.172C59.9961 26.2859 60.2345 26.453 60.4319 26.6628C60.6292 26.8725 60.7815 27.1205 60.8792 27.3915C60.9769 27.6624 61.0181 27.9505 61 28.238L60.654 33.771C60.5148 36.0002 59.5308 38.0925 57.9026 39.6214C56.2745 41.1504 54.1246 42.001 51.891 42C50.7321 42.0002 49.5847 41.7708 48.515 41.325L38.136 37L41.136 32Z" fill="#E53935"/>
<path d="M61 28.1201V28.2401L60.65 33.7701C60.5122 35.9994 59.5292 38.0921 57.9013 39.6215C56.2735 41.1508 54.1235 42.0015 51.89 42.0001C50.7325 42.0006 49.5867 41.7694 48.52 41.3201L38.14 37.0001L41.14 32.0001L46.39 34.9101C46.5983 35.8594 47.0499 36.7383 47.7003 37.4606C48.3506 38.1829 49.1776 38.7237 50.1 39.0301C50.6731 39.225 51.2747 39.3231 51.88 39.3201C53.156 39.3219 54.3943 38.888 55.39 38.0901C57.0638 36.7497 58.1475 34.8083 58.41 32.6801C58.6767 30.6407 58.2731 28.57 57.26 26.7801C57.5333 26.4382 57.9066 26.1903 58.3276 26.071C58.7487 25.9517 59.1965 25.9669 59.6085 26.1145C60.0205 26.2621 60.3761 26.5348 60.6256 26.8943C60.8751 27.2539 61.006 27.6825 61 28.1201V28.1201Z" fill="#C62828"/>
<path d="M3 28.1201V28.2401L3.35 33.7701C3.48776 35.9994 4.47082 38.0921 6.09865 39.6215C7.72649 41.1508 9.87645 42.0015 12.11 42.0001C13.2675 42.0006 14.4133 41.7694 15.48 41.3201L25.86 37.0001L22.86 32.0001L17.61 34.9101C17.4016 35.8594 16.9501 36.7383 16.2997 37.4606C15.6493 38.1829 14.8224 38.7237 13.9 39.0301C13.3269 39.225 12.7253 39.3231 12.12 39.3201C10.844 39.3219 9.6057 38.888 8.61 38.0901C6.93621 36.7497 5.85248 34.8083 5.59 32.6801C5.32331 30.6407 5.72693 28.57 6.74 26.7801C6.4667 26.4382 6.09344 26.1903 5.67237 26.071C5.25131 25.9517 4.80349 25.9669 4.39149 26.1145C3.97949 26.2621 3.6239 26.5348 3.37442 26.8943C3.12494 27.2539 2.99404 27.6825 3 28.1201V28.1201Z" fill="#C62828"/>
<path d="M57 45V46.307C57 47.5517 56.5056 48.7454 55.6255 49.6255C54.7453 50.5056 53.5517 51 52.307 51V51C51.3392 50.9999 50.3952 50.7007 49.6041 50.1432C48.813 49.5858 48.2136 48.7974 47.888 47.886L46.688 44.534C44.9082 39.5484 43.999 34.2938 44 29V29C45.3188 28.9977 46.6002 28.5609 47.6458 27.7572C48.6915 26.9535 49.4432 25.8276 49.7847 24.5537C50.1262 23.2799 50.0385 21.929 49.5352 20.71C49.0318 19.491 48.1408 18.4718 47 17.81C46.4559 17.4929 45.9947 17.0513 45.6542 16.5215C45.3136 15.9917 45.1035 15.3887 45.041 14.762C44.7063 11.5353 43.1876 8.54716 40.7782 6.37485C38.3689 4.20254 35.24 3.00024 31.996 3.00024C28.752 3.00024 25.6231 4.20254 23.2138 6.37485C20.8044 8.54716 19.2857 11.5353 18.951 14.762C18.8893 15.388 18.6804 15.9905 18.3413 16.5202C18.0023 17.05 17.5426 17.4919 17 17.81C15.8592 18.4718 14.9682 19.491 14.4648 20.71C13.9615 21.929 13.8738 23.2799 14.2153 24.5537C14.5568 25.8276 15.3085 26.9535 16.3542 27.7572C17.3998 28.5609 18.6812 28.9977 20 29C20.0001 34.294 19.0898 39.5486 17.309 44.534L16.109 47.886C15.7836 48.7969 15.1846 49.5849 14.3941 50.1424C13.6037 50.6998 12.6603 50.9993 11.693 51V51C10.4483 51 9.25466 50.5056 8.37455 49.6255C7.49444 48.7454 7 47.5517 7 46.307V45C7 44.4696 6.78929 43.9609 6.41421 43.5858C6.03914 43.2107 5.53043 43 5 43C4.46957 43 3.96086 43.2107 3.58579 43.5858C3.21071 43.9609 3 44.4696 3 45V46C3 48.387 3.94821 50.6762 5.63604 52.364C7.32387 54.0518 9.61305 55 12 55H12.843C14.6565 55 16.4276 54.4522 17.9244 53.4283C19.4212 52.4044 20.5737 50.9522 21.231 49.262L23.825 42.592C24.4657 40.9449 25.589 39.5297 27.0478 38.5318C28.5065 37.534 30.2326 37.0001 32 37V37C33.7674 37.0001 35.4935 37.534 36.9522 38.5318C38.411 39.5297 39.5343 40.9449 40.175 42.592L42.769 49.262C43.4263 50.9522 44.5788 52.4044 46.0756 53.4283C47.5724 54.4522 49.3435 55 51.157 55H52C54.3869 55 56.6761 54.0518 58.364 52.364C60.0518 50.6762 61 48.387 61 46V45C61 44.4696 60.7893 43.9609 60.4142 43.5858C60.0391 43.2107 59.5304 43 59 43C58.4696 43 57.9609 43.2107 57.5858 43.5858C57.2107 43.9609 57 44.4696 57 45Z" fill="#EF5350"/>
<path d="M59 42.9999V45.9999C59 47.5912 58.3679 49.1174 57.2426 50.2426C56.1174 51.3678 54.5913 51.9999 53 51.9999H52.157C50.3435 51.9999 48.5724 51.4521 47.0756 50.4282C45.5788 49.4043 44.4263 47.9521 43.769 46.2619L41.175 39.5919C40.535 37.9444 39.4114 36.529 37.952 35.5319C36.3885 34.4071 35.1212 32.9198 34.2587 31.1976C33.3962 29.4754 32.9643 27.5697 33 25.6439V9.65995C32.9898 8.4214 33.3614 7.20977 34.0642 6.1899C34.7671 5.17002 35.767 4.3914 36.928 3.95995C35.0432 3.1968 33.0067 2.88223 30.9794 3.04106C28.9522 3.19989 26.9896 3.82777 25.2466 4.87515C23.5036 5.92252 22.0279 7.3607 20.936 9.07618C19.8441 10.7916 19.1659 12.7374 18.955 14.7599C18.8932 15.3866 18.6838 15.9897 18.344 16.5199C18.0042 17.05 17.5436 17.4921 17 17.8099C15.8592 18.4717 14.9682 19.4909 14.4648 20.7099C13.9615 21.9289 13.8738 23.2798 14.2153 24.5537C14.5568 25.8275 15.3085 26.9534 16.3542 27.7571C17.3998 28.5608 18.6812 28.9976 20 28.9999C20.0001 34.2939 19.0898 39.5485 17.309 44.5339L16.109 47.8849C15.7353 48.9238 15.0074 49.7976 14.0533 50.3528C13.0991 50.908 11.9797 51.1091 10.8919 50.9207C9.80416 50.7322 8.81765 50.1663 8.10583 49.3225C7.39401 48.4787 7.00245 47.4109 7 46.3069V44.9999C7 44.4695 6.78929 43.9608 6.41421 43.5857C6.03914 43.2107 5.53043 42.9999 5 42.9999C4.46957 42.9999 3.96086 43.2107 3.58579 43.5857C3.21071 43.9608 3 44.4695 3 44.9999V45.9999C3 48.3869 3.94821 50.6761 5.63604 52.3639C7.32387 54.0517 9.61305 54.9999 12 54.9999H12.843C14.6565 54.9999 16.4276 54.4521 17.9244 53.4282C19.4212 52.4043 20.5737 50.9521 21.231 49.2619L23.825 42.5919C24.4658 40.9449 25.5892 39.5299 27.0479 38.5322C28.5067 37.5345 30.2327 37.0007 32 37.0007C33.7673 37.0007 35.4933 37.5345 36.9521 38.5322C38.4108 39.5299 39.5342 40.9449 40.175 42.5919L42.769 49.2619C43.4263 50.9521 44.5788 52.4043 46.0756 53.4282C47.5724 54.4521 49.3435 54.9999 51.157 54.9999H52C54.3869 54.9999 56.6761 54.0517 58.364 52.3639C60.0518 50.6761 61 48.3869 61 45.9999V44.9999C61 44.4695 60.7893 43.9608 60.4142 43.5857C60.0391 43.2107 59.5304 42.9999 59 42.9999Z" fill="#E53935"/>
<path d="M44 29C47.3137 29 50 26.3137 50 23C50 19.6863 47.3137 17 44 17C40.6863 17 38 19.6863 38 23C38 26.3137 40.6863 29 44 29Z" fill="#ADE8F4"/>
<path d="M49.47 25.47C49.07 26.3541 48.4615 27.1279 47.6967 27.7251C46.932 28.3224 46.0338 28.7253 45.0791 28.8992C44.1245 29.0731 43.1419 29.013 42.2157 28.7238C41.2894 28.4347 40.4471 27.9252 39.761 27.239C39.0749 26.5529 38.5654 25.7106 38.2762 24.7843C37.9871 23.8581 37.9269 22.8755 38.1008 21.9209C38.2747 20.9663 38.6776 20.0681 39.2749 19.3033C39.8721 18.5386 40.646 17.9301 41.53 17.53C41.0272 18.6412 40.8749 19.8793 41.0935 21.0792C41.3122 22.2791 41.8913 23.3839 42.7537 24.2463C43.6162 25.1087 44.7209 25.6879 45.9209 25.9065C47.1208 26.1251 48.3588 25.9729 49.47 25.47V25.47Z" fill="#48CAE4"/>
<path d="M42 26C43.6569 26 45 24.6569 45 23C45 21.3431 43.6569 20 42 20C40.3431 20 39 21.3431 39 23C39 24.6569 40.3431 26 42 26Z" fill="#00B4D8"/>
<path d="M41.009 20.181C40.5879 20.3264 40.2046 20.5639 39.887 20.8763C39.5694 21.1887 39.3256 21.568 39.1733 21.9867C39.0211 22.4053 38.9642 22.8526 39.0069 23.2961C39.0496 23.7395 39.1908 24.1678 39.4201 24.5497C39.6495 24.9316 39.9612 25.2574 40.3325 25.5035C40.7039 25.7495 41.1255 25.9096 41.5665 25.9719C42.0076 26.0342 42.4571 25.9973 42.8821 25.8637C43.307 25.7302 43.6968 25.5034 44.023 25.2C43.1338 24.6905 42.3899 23.9617 41.8623 23.0831C41.3347 22.2045 41.0409 21.2054 41.009 20.181V20.181Z" fill="#0096C7"/>
<path d="M43.5 24C44.3284 24 45 23.3284 45 22.5C45 21.6716 44.3284 21 43.5 21C42.6716 21 42 21.6716 42 22.5C42 23.3284 42.6716 24 43.5 24Z" fill="#ADE8F4"/>
<path d="M20 29C23.3137 29 26 26.3137 26 23C26 19.6863 23.3137 17 20 17C16.6863 17 14 19.6863 14 23C14 26.3137 16.6863 29 20 29Z" fill="#ADE8F4"/>
<path d="M22 26C23.6569 26 25 24.6569 25 23C25 21.3431 23.6569 20 22 20C20.3431 20 19 21.3431 19 23C19 24.6569 20.3431 26 22 26Z" fill="#00B4D8"/>
<path d="M25.47 25.47C25.0699 26.3541 24.4615 27.1279 23.6967 27.7251C22.932 28.3224 22.0338 28.7253 21.0791 28.8992C20.1245 29.0731 19.1419 29.013 18.2157 28.7238C17.2894 28.4347 16.4471 27.9252 15.761 27.239C15.0749 26.5529 14.5654 25.7106 14.2762 24.7843C13.9871 23.8581 13.9269 22.8755 14.1008 21.9209C14.2747 20.9663 14.6776 20.0681 15.2749 19.3033C15.8721 18.5386 16.646 17.9301 17.53 17.53C17.0272 18.6412 16.8749 19.8793 17.0935 21.0792C17.3122 22.2791 17.8913 23.3839 18.7537 24.2463C19.6161 25.1087 20.7209 25.6879 21.9208 25.9065C23.1208 26.1251 24.3588 25.9729 25.47 25.47V25.47Z" fill="#48CAE4"/>
<path d="M23.5 24C24.3284 24 25 23.3284 25 22.5C25 21.6716 24.3284 21 23.5 21C22.6716 21 22 21.6716 22 22.5C22 23.3284 22.6716 24 23.5 24Z" fill="#ADE8F4"/>
<path d="M22 26C22.1189 25.9951 22.2375 25.9831 22.355 25.964C21.4726 25.868 20.6229 25.5759 19.868 25.109C20.1465 25.3916 20.4784 25.6159 20.8444 25.7689C21.2105 25.9218 21.6033 26.0004 22 26V26Z" fill="#0096C7"/>
<path d="M32 33C33.1046 33 34 31.6569 34 30C34 28.3431 33.1046 27 32 27C30.8954 27 30 28.3431 30 30C30 31.6569 30.8954 33 32 33Z" fill="#C62828"/>
<path d="M56 21C57.6569 21 59 19.6569 59 18C59 16.3431 57.6569 15 56 15C54.3431 15 53 16.3431 53 18C53 19.6569 54.3431 21 56 21Z" fill="#ADE8F4"/>
<path d="M53 11C54.1046 11 55 10.1046 55 9C55 7.89543 54.1046 7 53 7C51.8954 7 51 7.89543 51 9C51 10.1046 51.8954 11 53 11Z" fill="#ADE8F4"/>
<path d="M8 22C9.65685 22 11 20.6569 11 19C11 17.3431 9.65685 16 8 16C6.34315 16 5 17.3431 5 19C5 20.6569 6.34315 22 8 22Z" fill="#ADE8F4"/>
<path d="M5 12C6.10457 12 7 11.1046 7 10C7 8.89543 6.10457 8 5 8C3.89543 8 3 8.89543 3 10C3 11.1046 3.89543 12 5 12Z" fill="#ADE8F4"/>
<path d="M16 8C17.1046 8 18 7.10457 18 6C18 4.89543 17.1046 4 16 4C14.8954 4 14 4.89543 14 6C14 7.10457 14.8954 8 16 8Z" fill="#ADE8F4"/>
<path d="M58 19C57.5308 19.0064 57.0668 18.9011 56.6463 18.6929C56.2258 18.4847 55.8608 18.1795 55.5815 17.8025C55.3021 17.4254 55.1164 16.9874 55.0396 16.5245C54.9629 16.0616 54.9973 15.587 55.14 15.14C54.6431 15.2876 54.193 15.5618 53.8339 15.9356C53.4748 16.3095 53.219 16.7703 53.0916 17.2727C52.9642 17.7752 52.9695 18.3022 53.107 18.802C53.2446 19.3018 53.5096 19.7573 53.8762 20.1239C54.2427 20.4904 54.6982 20.7554 55.198 20.893C55.6978 21.0305 56.2248 21.0358 56.7273 20.9084C57.2298 20.781 57.6905 20.5252 58.0644 20.1661C58.4383 19.807 58.7124 19.3569 58.86 18.86C58.5817 18.9485 58.292 18.9957 58 19V19Z" fill="#48CAE4"/>
<path d="M54 10.0001C53.6656 10.0014 53.3363 9.91864 53.0424 9.7593C52.7485 9.59995 52.4994 9.36918 52.318 9.08826C52.1367 8.80733 52.0291 8.48529 52.0049 8.15181C51.9808 7.81834 52.041 7.48415 52.18 7.18005C51.8834 7.3119 51.6234 7.51395 51.4223 7.76875C51.2213 8.02356 51.0853 8.32346 51.026 8.64258C50.9668 8.96169 50.9861 9.29043 51.0823 9.60041C51.1785 9.9104 51.3487 10.1923 51.5782 10.4218C51.8077 10.6513 52.0896 10.8215 52.3996 10.9177C52.7096 11.0139 53.0384 11.0332 53.3575 10.974C53.6766 10.9148 53.9765 10.7788 54.2313 10.5777C54.4861 10.3767 54.6881 10.1166 54.82 9.82005C54.5626 9.93768 54.283 9.99905 54 10.0001Z" fill="#48CAE4"/>
<path d="M10 20C9.5308 20.0064 9.06682 19.9011 8.6463 19.6929C8.22579 19.4847 7.86081 19.1795 7.58146 18.8025C7.30211 18.4254 7.1164 17.9874 7.03964 17.5245C6.96288 17.0616 6.99728 16.587 7.14 16.14C6.64307 16.2876 6.193 16.5618 5.83391 16.9356C5.47483 17.3095 5.21904 17.7703 5.09162 18.2727C4.96419 18.7752 4.96951 19.3022 5.10704 19.802C5.24457 20.3018 5.5096 20.7573 5.87615 21.1239C6.24271 21.4904 6.69821 21.7554 7.19802 21.893C7.69783 22.0305 8.22479 22.0358 8.72727 21.9084C9.22976 21.781 9.69051 21.5252 10.0644 21.1661C10.4383 20.807 10.7124 20.3569 10.86 19.86C10.5817 19.9485 10.292 19.9957 10 20Z" fill="#48CAE4"/>
<path d="M6 11.0001C5.66565 11.0014 5.33633 10.9186 5.0424 10.7593C4.74846 10.5999 4.49936 10.3692 4.31806 10.0883C4.13675 9.80733 4.02907 9.48529 4.00494 9.15181C3.98082 8.81834 4.04102 8.48415 4.18 8.18005C3.88342 8.3119 3.62338 8.51395 3.42234 8.76875C3.22129 9.02356 3.08528 9.32346 3.02605 9.64258C2.96681 9.96169 2.98613 10.2904 3.08233 10.6004C3.17854 10.9104 3.34874 11.1923 3.57824 11.4218C3.80774 11.6513 4.08966 11.8215 4.39964 11.9177C4.70962 12.0139 5.03836 12.0332 5.35747 11.974C5.67659 11.9148 5.97649 11.7788 6.2313 11.5777C6.4861 11.3767 6.68815 11.1166 6.82 10.8201C6.56257 10.9377 6.28302 10.999 6 11.0001V11.0001Z" fill="#48CAE4"/>
<path d="M17 7.00005C16.6657 7.00144 16.3363 6.91864 16.0424 6.7593C15.7485 6.59995 15.4994 6.36918 15.3181 6.08826C15.1367 5.80733 15.0291 5.48529 15.0049 5.15181C14.9808 4.81834 15.041 4.48415 15.18 4.18005C14.8834 4.3119 14.6234 4.51395 14.4223 4.76875C14.2213 5.02356 14.0853 5.32346 14.026 5.64258C13.9668 5.96169 13.9861 6.29043 14.0823 6.60041C14.1785 6.9104 14.3487 7.19231 14.5782 7.42181C14.8077 7.65131 15.0897 7.82151 15.3996 7.91772C15.7096 8.01392 16.0384 8.03324 16.3575 7.97401C16.6766 7.91477 16.9765 7.77876 17.2313 7.57771C17.4861 7.37667 17.6881 7.11663 17.82 6.82005C17.5626 6.93768 17.283 6.99905 17 7.00005V7.00005Z" fill="#48CAE4"/>
<path d="M40.868 15C40.6428 14.9996 40.4244 14.9233 40.248 14.7834C40.0716 14.6435 39.9476 14.4481 39.896 14.229C39.4228 12.2105 38.1896 10.4522 36.453 9.31995C36.231 9.17475 36.0758 8.94731 36.0215 8.68766C35.9672 8.42802 36.0183 8.15744 36.1635 7.93545C36.3087 7.71347 36.5361 7.55826 36.7958 7.50397C37.0554 7.44967 37.326 7.50075 37.548 7.64595C39.7147 9.05844 41.2529 11.2525 41.842 13.771C41.902 14.0287 41.8574 14.2998 41.718 14.5247C41.5785 14.7496 41.3556 14.9101 41.098 14.971C41.0226 14.9889 40.9455 14.9987 40.868 15V15Z" fill="#FF7373"/>
<path d="M34 8C34.5523 8 35 7.55228 35 7C35 6.44772 34.5523 6 34 6C33.4477 6 33 6.44772 33 7C33 7.55228 33.4477 8 34 8Z" fill="#FF7373"/>
<path d="M59 8C59.5523 8 60 7.55228 60 7C60 6.44772 59.5523 6 59 6C58.4477 6 58 6.44772 58 7C58 7.55228 58.4477 8 59 8Z" fill="#ADE8F4"/>
<path d="M46 6C46.5523 6 47 5.55228 47 5C47 4.44772 46.5523 4 46 4C45.4477 4 45 4.44772 45 5C45 5.55228 45.4477 6 46 6Z" fill="#ADE8F4"/>
<path d="M9 5C9.55228 5 10 4.55228 10 4C10 3.44772 9.55228 3 9 3C8.44772 3 8 3.44772 8 4C8 4.55228 8.44772 5 9 5Z" fill="#ADE8F4"/>
<path d="M34 6C33.7348 6 33.4804 6.10536 33.2929 6.29289C33.1053 6.48043 33 6.73478 33 7C32.9994 7.13307 33.0257 7.26488 33.0773 7.38755C33.1288 7.51023 33.2046 7.62126 33.3 7.714C33.4977 7.11066 33.7929 6.54381 34.174 6.036C34.1172 6.01869 34.059 6.00664 34 6V6Z" fill="#EF5350"/>
</svg>
